<?xml version="1.0" encoding="utf-8"?>
<!-- Generator: Adobe Illustrator 26.0.2, SVG Export Plug-In . SVG Version: 6.00 Build 0)  -->
<svg version="1.1" id="Layer_1" xmlns="http://www.w3.org/2000/svg" xmlns:xlink="http://www.w3.org/1999/xlink" x="0px" y="0px"
	 viewBox="0 0 32 32" style="enable-background:new 0 0 32 32;" xml:space="preserve">
<style type="text/css">
	.st0{fill:url(#SVGID_1_);}
</style>
<g>
	<linearGradient id="SVGID_1_" gradientUnits="userSpaceOnUse" x1="1" y1="16" x2="31" y2="16">
		<stop  offset="0" style="stop-color:#881313"/>
		<stop  offset="1" style="stop-color:#E20613"/>
	</linearGradient>
	<path class="st0" d="M31,7.3c-3.4,0-6.7,0-9.9,0c-1.2,0-2,0.4-2.7,1.1l-1.6,2.2l0.2,0.2l0,0v0l1.8,2.5c0.5-0.8,1.1-1.5,1.6-2.3
		c0.2-0.2,0.5-0.5,0.8-0.5c1.1-0.1,2.1,0,3.4,0c-2,2.9-3.9,5.6-5.9,8.4c-0.6-0.9-1.2-1.7-1.7-2.5l0,0L17,16.3c0,0-0.5,0.8-1.1,1.5
		c-0.5-0.8-1.1-1.5-1.1-1.5l-0.1,0.1l0,0c-0.6,0.8-1.1,1.6-1.7,2.5c-2-2.7-3.9-5.5-5.9-8.4c1.3,0,2.3,0,3.4,0c0.3,0,0.7,0.2,0.8,0.5
		c0.5,0.8,1.1,1.5,1.6,2.3l1.8-2.5v0l0,0l0.2-0.2l-1.5-2.3c-0.6-0.8-1.4-1.1-2.7-1.1c-3.2,0-6.5,0-9.9,0c4,5.8,8,11.6,12.1,17.3
		c1-1.4,2-2.8,2.9-4.2c1,1.4,1.9,2.7,2.9,4.2C22.9,18.9,26.9,13.2,31,7.3z"/>
</g>
</svg>
